<svg viewBox="0 0 24 24" xmlns="http://www.w3.org/2000/svg" xmlns:xlink="http://www.w3.org/1999/xlink" width="24.000000" height="24.000000" fill="none">
	<rect id="instagram" width="24.000000" height="24.000000" x="0.000000" y="0.000000" />
	<path id="Vector" d="M7.8 2.00003L16.2 2.00003C19.4032 2.00003 22 4.59678 22 7.80003L22 16.2C22 19.4033 19.4032 22 16.2 22L7.8 22C4.59675 22 2 19.4033 2 16.2L2 7.80003C2 4.59678 4.59675 2.00003 7.8 2.00003ZM7.6 4.00001C5.61177 4.00001 4 5.61179 4 7.60001L4 16.4C4 18.3882 5.61177 20 7.6 20L16.4 20C18.3882 20 20 18.3882 20 16.4L20 7.60001C20 5.61179 18.3882 4.00001 16.4 4.00001L7.6 4.00001ZM17.25 5.50001C17.9404 5.50001 18.5 6.05966 18.5 6.75001C18.5 7.44037 17.9404 8.00001 17.25 8.00001C16.5596 8.00001 16 7.44037 16 6.75001C16 6.05966 16.5596 5.50001 17.25 5.50001ZM12 7.00001C14.7614 7.00001 17 9.23859 17 12C17 14.7614 14.7614 17 12 17C9.23857 17 7 14.7614 7 12C7 9.23859 9.23857 7.00001 12 7.00001ZM12 9.00001C10.3431 9.00001 9 10.3432 9 12C9 13.6569 10.3431 15 12 15C13.6569 15 15 13.6569 15 12C15 10.3432 13.6569 9.00001 12 9.00001Z" fill="rgb(255,255,255)" fill-rule="nonzero" />
</svg>
