<svg viewBox="0 0 108 24" xmlns="http://www.w3.org/2000/svg" xmlns:xlink="http://www.w3.org/1999/xlink" width="108.000000" height="24.000000" fill="none">
	<rect id="Logo" width="108.000000" height="24.000000" x="0.000000" y="0.000000" />
	<path id="M" d="M0.96 22.6L9.856 22.6L9.856 22.152C6.656 21.736 5.696 20.392 5.696 17.16L5.696 2.472L5.888 2.472L14.208 22.632L15.36 22.632L22.816 2.472L22.976 2.472L22.976 20.328C22.976 21.608 22.176 22.056 19.904 22.152L19.904 22.6L30.944 22.6L30.944 22.152C28.256 22.056 27.616 21.544 27.616 20.328L27.616 2.568C27.616 1.352 28.256 0.807999 30.944 0.712L30.944 0.296L22.784 0.296L16.736 16.744L16.576 16.744L9.984 0.296L0.96 0.296L0.96 0.712C3.712 0.775999 4.896 2.248 4.896 4.168L4.896 17.16C4.896 20.392 3.968 21.768 0.96 22.152L0.96 22.6Z" fill="rgb(255,255,255)" fill-rule="nonzero" />
	<path id="N" d="M52.128 22.952L53.664 22.952L53.664 5.704C53.664 2.536 54.528 1.16 57.536 0.712L57.536 0.296L48.448 0.296L48.448 0.712C51.68 1.096 52.864 2.536 52.864 5.704L52.864 16.328L52.832 16.328L40.512 0.296L32.96 0.296L32.96 0.712C35.712 0.84 36.896 2.472 36.896 4.424L36.896 17.16C36.896 20.392 35.968 21.768 32.96 22.152L32.96 22.6L41.984 22.6L41.984 22.152C38.72 21.8 37.696 20.392 37.696 17.16L37.696 4.328L37.728 4.328L52.128 22.952Z" fill="rgb(255,255,255)" fill-rule="nonzero" />
	<path id="T" d="M63.6 22.6L75.696 22.6L75.696 22.152C72.848 22.088 71.984 21.544 71.984 20.328L71.984 0.872L72.752 0.872C75.216 0.872 77.136 3.336 79.376 7.688L79.856 7.624L79.696 0.296L59.568 0.296L59.376 7.624L59.856 7.688C62.128 3.24 64.08 0.872 66.512 0.872L67.312 0.872L67.312 20.328C67.312 21.544 66.416 22.088 63.6 22.152L63.6 22.6Z" fill="rgb(255,255,255)" fill-rule="nonzero" />
	<path id="N" d="M102.128 22.952L103.664 22.952L103.664 5.704C103.664 2.536 104.528 1.16 107.536 0.712L107.536 0.296L98.448 0.296L98.448 0.712C101.68 1.096 102.864 2.536 102.864 5.704L102.864 16.328L102.832 16.328L90.512 0.296L82.96 0.296L82.96 0.712C85.712 0.84 86.896 2.472 86.896 4.424L86.896 17.16C86.896 20.392 85.968 21.768 82.96 22.152L82.96 22.6L91.984 22.6L91.984 22.152C88.72 21.8 87.696 20.392 87.696 17.16L87.696 4.328L87.728 4.328L102.128 22.952Z" fill="rgb(255,255,255)" fill-rule="nonzero" />
</svg>
